:SAMPLES-PER-SECOND 30
:FULLY-SPECIFIED
:DEGREES
311
root  -25.2757 27.136 18.4517 29.182 -62.2479 -1.73969
RightUpLeg  -65.2921 -4.0067 -13.2524
RightLeg  68.9356 1.26843 2.59247
RightFoot  -17.4606 0.129992 1.22409
RightToes  -51.2703 -0.314178 -0.369552
Spine  22.7739 4.34796 -0.449304
Spine1  37.8501 11.493 -4.6554
HEad  1.2942 -5.13638 13.044
LeftShoulder1  0 -2.42657e-020 -4.95415e-022
LeftArm  -31.2878 -42.1344 -73.3968
LeftForeArm  29.9189 -56.1574 -15.2944
LeftHand  1.14618 -9.61972 -13.9381
RightShoulder  0 2.42657e-020 1.07489e-018
RightArm  -39.4273 46.6019 89.7281
RightForeArm  26.614 23.9147 4.47927
RightHand  -0.321649 23.1158 -1.20304
LeftUpLeg  -59.9862 0.823781 34.5887
LeftLeg  54.5534 -2.69082 -3.31148
LeftFoot  -1.87215 -0.0276242 -1.69057
LeftToes  -37.0512 1.18758e-006 1.19596e-007
312
root  -25.6012 26.2847 17.7205 28.8115 -63.1419 -0.378064
RightUpLeg  -70.0753 -2.76789 -13.2694
RightLeg  75.3558 0.769804 2.0711
RightFoot  -19.8936 0.167996 1.33553
RightToes  -49.8804 -0.301822 -0.363871
Spine  24.3422 3.05254 0.28347
Spine1  39.4526 7.57338 -1.80027
HEad  0.0093485 -3.91747 10.6646
LeftShoulder1  0 -2.42657e-020 -4.95415e-022
LeftArm  -24.9056 -48.6387 -78.3503
LeftForeArm  39.3215 -49.1419 -11.7753
LeftHand  0.463616 -12.5409 -4.58992
RightShoulder  0 2.42657e-020 1.07489e-018
RightArm  -43.1891 52.8306 89.9517
RightForeArm  26.3255 20.2259 3.71988
RightHand  -0.0936137 22.37 -0.103449
LeftUpLeg  -61.9772 -0.33302 33.9585
LeftLeg  61.8126 -2.63059 -4.23337
LeftFoot  -8.0204 -0.112228 -1.60074
LeftToes  -44.2939 1.18758e-006 1.19596e-007
313
root  -25.8725 25.465 17.1403 29.0538 -63.794 0.534078
RightUpLeg  -74.1469 -2.22167 -13.0103
RightLeg  80.3924 0.564219 1.9957
RightFoot  -22.4273 0.157035 1.16967
RightToes  -48.763 -0.291991 -0.359088
Spine  25.9023 1.85202 1.7377
Spine1  40.7861 3.36347 2.37056
HEad  -1.34359 -3.47301 8.15201
LeftShoulder1  0 -2.42657e-020 -4.95415e-022
LeftArm  -15.655 -55.169 -86.724
LeftForeArm  46.8093 -39.3687 -8.2992
LeftHand  0.0833456 -13.1172 -1.09543
RightShoulder  0 2.42657e-020 1.07489e-018
RightArm  -49.9852 58.8233 87.841
RightForeArm  27.6712 16.5413 2.99739
RightHand  -0.150483 21.9647 -0.405537
LeftUpLeg  -63.9534 -1.43348 33.0174
LeftLeg  68.4321 1.16355 2.45067
LeftFoot  -10.4998 -0.308693 -3.35861
LeftToes  -43.6177 1.18758e-006 1.19596e-007
314
root  -26.0939 24.8686 16.7182 28.8755 -64.422 2.35838
RightUpLeg  -77.8583 -2.034 -13.2817
RightLeg  84.1955 0.421816 1.92526
RightFoot  -24.1577 0.127723 0.974424
RightToes  -47.3714 -0.279882 -0.352865
Spine  27.1931 0.802933 3.43065
Spine1  41.6563 -0.158258 6.08424
HEad  -3.44689 -2.72504 6.51993
LeftShoulder1  0 -2.42657e-020 -4.95415e-022
LeftArm  -4.53127 -62.6315 -100.229
LeftForeArm  52.6603 -27.4704 -5.22223
LeftHand  0.109782 -13.7699 -1.27976
RightShoulder  0 2.42657e-020 1.07489e-018
RightArm  -60.5649 64.2687 81.9432
RightForeArm  29.453 12.5897 2.25362
RightHand  -0.170366 21.7178 -0.51825
LeftUpLeg  -66.0808 -2.79631 31.7963
LeftLeg  73.212 4.07834 10.7689
LeftFoot  -12.0883 -0.617656 -5.82838
LeftToes  -34.4583 1.18758e-006 1.19596e-007
315
root  -26.2872 24.5206 16.4831 27.8686 -65.3927 4.97203
RightUpLeg  -80.7346 -2.0894 -14.0014
RightLeg  86.6204 0.370012 2.1393
RightFoot  -24.9775 0.0599585 0.648274
RightToes  -46.6921 -0.274026 -0.351079
Spine  27.6278 0.0943728 4.89414
Spine1  41.5171 -2.26377 8.58661
HEad  -4.70045 -2.13319 5.5443
LeftShoulder1  0 -2.42657e-020 -4.95415e-022
LeftArm  8.13515 -66.5777 -115.039
LeftForeArm  59.3547 -18.552 -3.34294
LeftHand  0.75337 -15.021 -6.08235
RightShoulder  0 2.42657e-020 1.07489e-018
RightArm  -73.6125 66.6503 70.7655
RightForeArm  31.2963 8.9809 1.59516
RightHand  -0.163554 21.5301 -0.490346
LeftUpLeg  -68.0993 -4.99337 30.8326
LeftLeg  76.5861 5.90273 18.4675
LeftFoot  -12.9691 -0.943008 -8.28231
LeftToes  -19.9365 1.18758e-006 1.19596e-007
316
root  -26.5246 24.4592 16.4267 26.2348 -66.8622 7.53535
RightUpLeg  -81.9657 -1.57459 -14.995
RightLeg  87.4237 0.369176 2.39341
RightFoot  -25.5672 -0.0176727 0.299667
RightToes  -45.801 -0.266402 -0.350847
Spine  27.5805 -0.244957 6.22756
Spine1  41.0851 -3.23847 10.625
HEad  -5.50512 -1.7393 3.91842
LeftShoulder1  0 -2.42657e-020 -4.95415e-022
LeftArm  20.8387 -66.6911 -123.549
LeftForeArm  60.8007 -14.1244 -2.49311
LeftHand  1.26123 -15.6074 -9.55755
RightShoulder  0 2.42657e-020 1.07489e-018
RightArm  -85.5478 66.2457 57.4404
RightForeArm  31.1983 6.87921 1.21919
RightHand  -0.336427 21.0142 -1.44423
LeftUpLeg  -69.2271 -6.98662 29.9461
LeftLeg  79.1463 6.56636 23.7756
LeftFoot  -10.8353 -0.862333 -9.07377
LeftToes  -13.0373 1.18758e-006 1.19596e-007
317
root  -26.8301 24.7034 16.5556 24.9672 -69.2112 8.92811
RightUpLeg  -81.6595 -0.246182 -15.7812
RightLeg  86.4333 0.479476 2.94536
RightFoot  -25.3702 -0.11894 -0.150874
RightToes  -45.6898 -0.265456 -0.351793
Spine  27.4483 -0.159072 7.2115
Spine1  41.0089 -3.10265 11.9864
HEad  -5.81669 -0.961978 2.05968
LeftShoulder1  0 -2.42657e-020 -4.95415e-022
LeftArm  22.3157 -64.4651 -124.175
LeftForeArm  61.3081 -14.4927 -2.56092
LeftHand  1.13555 -15.5548 -8.67353
RightShoulder  0 2.42657e-020 1.07489e-018
RightArm  -93.8456 63.8693 48.2577
RightForeArm  26.9791 8.49614 1.51031
RightHand  0.0287625 22.1445 0.517135
LeftUpLeg  -68.796 -7.84405 28.9289
LeftLeg  80.9814 6.32057 26.0081
LeftFoot  -5.75583 -0.371 -7.3698
LeftToes  -17.6785 1.18758e-006 1.19596e-007
318
root  -27.197 25.1893 16.8764 22.7511 -71.4945 10.8172
RightUpLeg  -79.8772 0.505404 -16.4413
RightLeg  84.1544 0.777966 4.03316
RightFoot  -24.864 -0.252824 -0.769291
RightToes  -46.2282 -0.270049 -0.353542
Spine  27.2367 -0.237878 7.71265
Spine1  41.1161 -3.04459 12.5386
HEad  -5.96643 0.522512 0.28758
LeftShoulder1  0 -2.42657e-020 -4.95415e-022
LeftArm  16.2927 -61.6586 -119.475
LeftForeArm  60.6759 -17.5616 -3.14701
LeftHand  0.805146 -15.0569 -6.45955
RightShoulder  0 2.42657e-020 1.07489e-018
RightArm  -93.2546 61.0825 44.6364
RightForeArm  24.0986 13.6629 2.4547
RightHand  1.05978 24.2426 5.30297
LeftUpLeg  -67.9983 -7.93914 27.1452
LeftLeg  82.3421 5.35698 24.9333
LeftFoot  -1.44712 -0.0655769 -5.18893
LeftToes  -16.5171 1.18758e-006 1.19596e-007
319
root  -27.5884 25.841 17.3432 19.9849 -73.8015 13.0572
RightUpLeg  -77.2683 0.937029 -17.0779
RightLeg  80.8571 1.33475 5.4359
RightFoot  -23.7754 -0.381171 -1.43306
RightToes  -47.4328 -0.280413 -0.355716
Spine  26.6847 -0.493773 7.47659
Spine1  40.7221 -3.42038 12.3523
HEad  -5.5632 2.46323 -1.169
LeftShoulder1  0 -2.42657e-020 -4.95415e-022
LeftArm  8.23783 -58.446 -111.844
LeftForeArm  55.4947 -20.9279 -3.82402
LeftHand  0.697457 -14.7105 -5.77183
RightShoulder  0 2.42657e-020 1.07489e-018
RightArm  -86.954 57.3558 46.5792
RightForeArm  13.6398 20.9471 3.86442
RightHand  1.38873 24.8909 6.65813
LeftUpLeg  -66.7018 -7.15847 24.6975
LeftLeg  82.9395 3.92951 19.8267
LeftFoot  -0.723543 -0.0279296 -4.4211
LeftToes  -14.4298 1.18758e-006 1.19596e-007
320
root  -28.0079 26.5765 17.8748 18.0074 -75.926 14.3965
RightUpLeg  -74.1152 1.53176 -17.4942
RightLeg  76.8563 2.07698 6.55415
RightFoot  -22.4534 -0.456443 -1.9218
RightToes  -48.5013 -0.289702 -0.35794
Spine  25.9208 -0.962017 6.88161
Spine1  40.0106 -4.32974 11.8271
HEad  -4.91346 4.57772 -2.61995
LeftShoulder1  0 -2.42657e-020 -4.95415e-022
LeftArm  0.429896 -55.1034 -103.583
LeftForeArm  51.6471 -23.6751 -4.39838
LeftHand  0.621858 -14.0089 -5.43074
RightShoulder  0 2.42657e-020 1.07489e-018
RightArm  -80.3079 53.9222 51.1944
RightForeArm  12.9343 30.1007 5.86132
RightHand  1.36694 24.9066 6.55564
LeftUpLeg  -65.0205 -5.22783 21.935
LeftLeg  82.5151 2.79718 13.8522
LeftFoot  -2.17184 -0.0803175 -4.23531
LeftToes  -18.5898 1.18758e-006 1.19596e-007
